<?xml version="1.0" encoding="utf-8"?>
<!-- Generator: Adobe Illustrator 17.1.0, SVG Export Plug-In . SVG Version: 6.00 Build 0)  -->
<!DOCTYPE svg PUBLIC "-//W3C//DTD SVG 1.1//EN" "http://www.w3.org/Graphics/SVG/1.1/DTD/svg11.dtd">
<svg version="1.1" id="Layer_1" xmlns="http://www.w3.org/2000/svg" xmlns:xlink="http://www.w3.org/1999/xlink" x="0px" y="0px"
	 viewBox="0 0 128 128" enable-background="new 0 0 128 128" xml:space="preserve">
<g>
	<path d="M14.9,69.5h-4.6l0,0c-0.5,0-0.8,0.1-0.9,0.1L13,85.8c0.1,0,0.2,0,0.5,0h0.5h1.7c-1.9-2.3-3.2-4.7-3.2-8.2
		C12.4,74.6,13.3,71.8,14.9,69.5z"/>
	<path d="M34.3,85.8L34.3,85.8l3.5-16.2c-0.1,0-0.3-0.1-0.9-0.1h-4.6c1.5,2.2,2.4,5,2.4,8.1c0,3.5-1.3,6-3.1,8.2H34
		C34.2,85.8,34.2,85.8,34.3,85.8z"/>
	<path d="M29.4,85.8c2.2-2.4,3.7-4.7,3.7-8.2c0-3.2-1.1-6-2.9-8.1c-0.6-0.7-1.4-1.4-2.1-1.8c-1.4-0.8-2.8-1.3-4.4-1.3
		s-3.1,0.5-4.4,1.3c-0.7,0.5-1.4,1.1-2.1,1.8c-1.8,2.1-2.9,4.9-2.9,8.1c0,3.5,1.4,5.7,3.7,8.2H29.4z"/>
	<path d="M107.3,88.4c-1.4,0.4-3,0.6-4.6,0.6c-1.4,0-2.8-0.2-4.2-0.5L95,115.8c0,0.4,0.4,0.7,0.9,0.7H110c0.5,0,0.8-0.4,0.8-0.8
		L107.3,88.4C107.3,88.5,107.3,88.5,107.3,88.4z"/>
	<path d="M110,118.4L110,118.4L110,118.4z"/>
	<path d="M120.1,73.1h-2h-5.2v-3.6h1c0.5,0,0.8-0.4,0.8-0.8v-0.1c0-0.5-0.4-0.8-0.8-0.8h-1.4h-0.3h-0.5h-0.3h-1.4
		c-0.5,0-0.8,0.4-0.8,0.8v0.1c0,0.5,0.4,0.8,0.8,0.8h1v3.6h-4.8l-1-4.9c-0.2-1-0.4-2.2-1.5-2.2v-2.9c0-0.5-0.4-0.9-0.9-0.9
		s-0.9,0.4-0.9,0.9v2.9c-1.1,0-1.6,0.9-1.9,2.2l-1,4.9H93v-3.6h1c0.5,0,0.8-0.4,0.8-0.8v-0.1c0-0.5-0.4-0.8-0.8-0.8h-1.6h-0.5h-1.6
		c-0.5,0-0.8,0.4-0.8,0.8v0.1c0,0.5,0.4,0.8,0.8,0.8h0.9v3.6h-3.9h-1.5c-0.5,0-0.9,0.4-0.9,0.9c0,0.5,0.4,0.9,0.9,0.9h0.7h0.9l0,0
		h0.9c0.3,5.2,4.1,9.7,9.4,11.5c1.5,0.5,3.3,0.8,5.1,0.8c1.9,0,3.7-0.4,5.3-0.9c5.2-1.8,8.9-6.2,9.1-11.4h0.9l0,0h0.9h1.2
		c0.5,0,0.9-0.4,0.9-0.9C121.1,73.5,120.6,73.1,120.1,73.1z"/>
	<path d="M23.7,101.6c-2.1,0-4.1-0.4-5.9-1l-2.2,15c0,0.3,0.5,1,0.8,1h14c0.4,0,0.8-0.6,0.8-1.1l-2.2-14.7
		C27.4,101.3,25.6,101.6,23.7,101.6z"/>
	<path d="M39.2,89.4H40h0.5c0.5,0,0.9-0.4,0.9-0.9s-0.4-0.9-0.9-0.9h-0.3h-0.9l0,0h-0.9h-4.5h-0.5h-3.3h-0.5h-2.1h-8.1h-2.1H17h-3.1
		l0,0h-0.5c0,0-0.1,0-0.2,0H8.8H7.9l0,0c-0.5,0-0.7,0.3-0.8,0.7c0,0.1,0,0.1,0,0.2c0,0.2,0.1,0.3,0.2,0.5c0,0.3,0.3,0.5,0.6,0.5h0.2
		h1c0.8,3.7,3.5,6.8,7.2,8.6c0.3,0.2,0.6,0.3,0.9,0.5c0.3,0.1,0.5,0.2,0.8,0.3c1.7,0.6,3.6,1,5.6,1c1.8,0,3.6-0.3,5.2-0.8
		c0.3-0.1,0.5-0.2,0.8-0.3c0.4-0.1,0.6-0.3,0.9-0.4c3.9-1.8,6.8-5,7.6-8.9C38.1,89.4,39.2,89.4,39.2,89.4z"/>
	<path d="M60.9,26.4l6.3,6.3c0.8-0.8,2.5-3.4,2.8-4.3l-4.8-4.8C64.5,23.8,61.7,25.6,60.9,26.4z"/>
	<path d="M61,30.1c0.1,0,0.3,0,0.4-0.2l0.6-0.6c0.1-0.1,0.1-0.1,0.1-0.2c0.1-0.2,0.1-0.4-0.1-0.5c-0.2-0.2-0.4-0.2-0.5-0.1
		c-0.1,0-0.1,0-0.2,0.1l-0.6,0.6c-0.2,0.2-0.2,0.5,0,0.6C60.8,30.1,60.9,30.1,61,30.1z"/>
	<path d="M59,32.1c0.1,0,0.3,0,0.4-0.2l0.6-0.6c0.2-0.2,0.2-0.5,0-0.6c-0.2-0.2-0.5-0.2-0.6,0l-0.6,0.6c-0.2,0.2-0.2,0.5,0,0.6
		C58.8,32.1,58.9,32.1,59,32.1z"/>
	<path d="M58,32.6c-0.2-0.2-0.5-0.2-0.6,0l-0.7,0.7c-0.2,0.2-0.2,0.5,0,0.6c0.1,0.1,0.2,0.2,0.4,0.2c0.2,0,0.3,0,0.4-0.2l0.6-0.6
		C58.2,33.2,58.2,32.8,58,32.6z"/>
	<path d="M62,31.3c0.1,0.1,0.2,0.2,0.4,0.2c0.2,0,0.3,0,0.4-0.2l0.6-0.6c0,0,0-0.1,0.1-0.2c0.1-0.2,0.1-0.4-0.1-0.5
		c-0.2-0.2-0.4-0.2-0.5-0.1c-0.1,0-0.1,0-0.2,0.1L62,30.6C61.8,30.8,61.8,31.2,62,31.3z"/>
	<path d="M60.7,32L60,32.6c-0.2,0.2-0.2,0.5,0,0.6c0.1,0.1,0.2,0.2,0.4,0.2s0.3,0,0.4-0.2l0.6-0.6c0.2-0.2,0.2-0.5,0-0.6
		C61.2,31.8,60.8,31.8,60.7,32z"/>
	<path d="M59.3,34c-0.2-0.2-0.5-0.2-0.6,0L58,34.6c-0.2,0.2-0.2,0.5,0,0.6c0.1,0.1,0.2,0.2,0.4,0.2c0.2,0,0.3,0,0.4-0.2l0.6-0.6
		C59.5,34.4,59.5,34.1,59.3,34z"/>
	<path d="M64.2,31.3c-0.1,0-0.1,0-0.2,0.1L63.4,32c-0.2,0.2-0.2,0.5,0,0.6c0.1,0.1,0.2,0.2,0.4,0.2c0.2,0,0.3,0,0.4-0.2l0.6-0.6
		c0.1-0.1,0.1-0.1,0.1-0.2c0.1-0.2,0.1-0.4-0.1-0.5C64.6,31.2,64.4,31.2,64.2,31.3z"/>
	<path d="M62,33.3L61.4,34c-0.2,0.2-0.2,0.5,0,0.6c0.1,0.1,0.2,0.2,0.4,0.2s0.3,0,0.4-0.2l0.6-0.6c0.2-0.2,0.2-0.5,0-0.6
		C62.5,33.2,62.2,33.2,62,33.3z"/>
	<path d="M60,35.3L59.4,36c-0.2,0.2-0.2,0.5,0,0.6c0.1,0.1,0.2,0.2,0.4,0.2c0.2,0,0.3,0,0.4-0.2l0.6-0.6c0.2-0.2,0.2-0.5,0-0.6
		C60.5,35.1,60.2,35.1,60,35.3z"/>
	<path d="M89.3,25.2v0.9v24.4c0,2.5,2,4.5,4.5,4.5h17.2h0.9c2.5,0,4.5-2,4.5-4.5V25.2c0-2.5-2-4.5-4.5-4.5H93.9
		C91.3,20.7,89.3,22.7,89.3,25.2z M112,22.5c1.5,0,2.7,1.2,2.7,2.7v0.9v24.4c0,1.5-1.2,2.7-2.7,2.7H93.9c-1.5,0-2.7-1.2-2.7-2.7
		V25.2c0-1.5,1.2-2.7,2.7-2.7h17.2H112z"/>
	<path d="M44.1,105.7v14.5h32.6h1.8h1.8h1.8V9.8h-38V105.7z M45.9,11.6h34.4v94.1h-1.8V21.6c0-0.5-0.4-0.9-0.9-0.9h-4.4
		c-0.3,0-0.5,0.1-0.6,0.3l-2.8,2.6c-0.9-0.6-2.1-0.3-2.8,0l3.3,3.3c0.2-0.5,0.3-1,0.4-1.4l3-2.8h3.2v83.2H45.9V11.6z"/>
	<path d="M51.8,56.9h-0.9c-1.7,0-3.2,1.4-3.2,3.2v8.1c0,1.7,1.4,3.2,3.2,3.2h0.9c1.7,0,3.2-1.4,3.2-3.2V60
		C55,58.3,53.5,56.9,51.8,56.9z M53.2,68.2c0,0.7-0.6,1.4-1.4,1.4h-0.9c-0.7,0-1.4-0.6-1.4-1.4V60c0-0.7,0.6-1.4,1.4-1.4h0.9
		c0.7,0,1.4,0.6,1.4,1.4V68.2z"/>
	<rect x="7.9" y="46" width="30.8" height="5.4"/>
	<rect x="7.9" y="22.5" width="30.8" height="5.4"/>
	<polygon points="20.7,20.7 22.4,9.8 15.2,9.8 16.2,20.7 	"/>
	<path d="M29.6,44.2V37H15.2v7.2H29.6z M18.8,40.6H26v1.8h-7.2V40.6z"/>
	<rect x="13.3" y="33.3" width="18.1" height="1.8"/>
</g>
</svg>
