<?xml version="1.0" encoding="utf-8"?>
<!-- Generator: Adobe Illustrator 17.1.0, SVG Export Plug-In . SVG Version: 6.00 Build 0)  -->
<!DOCTYPE svg PUBLIC "-//W3C//DTD SVG 1.1//EN" "http://www.w3.org/Graphics/SVG/1.1/DTD/svg11.dtd">
<svg version="1.1" id="Layer_1" xmlns="http://www.w3.org/2000/svg" xmlns:xlink="http://www.w3.org/1999/xlink" x="0px" y="0px"
	 viewBox="0 0 128 128" enable-background="new 0 0 128 128" xml:space="preserve">
<path d="M44.9,23.4h-2.1v23.2h44.4V23.4h-2.7L66.8,8.1c0-0.1,0.1-0.2,0.1-0.3c0-1.1-0.9-1.9-1.9-1.9c-1.1,0-1.9,0.9-1.9,1.9
	c0,0.1,0,0.2,0.1,0.3L45,23.2C45,23.2,44.9,23.3,44.9,23.4z M84.8,25.3h0.5v19.3h-1.9H44.7V27.2v-1.9h39.1H84.8z M64.3,9.6
	c0.2,0.1,0.4,0.1,0.7,0.1c0.2,0,0.4-0.1,0.6-0.1l15.9,13.7H47.8L64.3,9.6z"/>
<path d="M36.9,73.6v1.9v9.6c1.3-2.1,3.4-3.8,6.8-3.8H83c5.3,0,6.4,1.3,8.1,3.9V73.6c0-10.7-8.7-19.3-19.3-19.3H56.3
	C45.6,54.3,36.9,62.9,36.9,73.6z"/>
<path d="M27.3,96.8H8v9.7h19.3V96.8z M23.4,100c0,0.3-0.3,0.6-0.6,0.6H12.4c-0.3,0-0.6-0.3-0.6-0.6v-0.7c0-0.3,0.3-0.6,0.6-0.6h10.4
	c0.3,0,0.6,0.3,0.6,0.6V100z"/>
<path d="M8,91h19.3v-9.7H8V91z M11.8,83.9c0-0.3,0.3-0.6,0.6-0.6h10.4c0.3,0,0.6,0.3,0.6,0.6v0.7c0,0.3-0.3,0.6-0.6,0.6H12.4
	c-0.3,0-0.6-0.3-0.6-0.6V83.9z"/>
<path d="M90.1,102.6H37.9c-0.3,0-0.7,0-1-0.1V118h5.8v-5.8h42.5v5.8h5.8v-15.6C90.7,102.5,90.4,102.6,90.1,102.6z"/>
<path d="M33.1,75.5H2.2V118H8v-5.8h19.3v5.8h5.8V75.5z M29.2,108.4H6V94.8h23.2V108.4z M29.2,92.9H6V79.4h23.2V92.9z"/>
<path d="M120,96.8h-19.3v9.7H120V96.8z M116.2,100c0,0.3-0.3,0.6-0.6,0.6h-10.4c-0.3,0-0.6-0.3-0.6-0.6v-0.7c0-0.3,0.3-0.6,0.6-0.6
	h10.4c0.3,0,0.6,0.3,0.6,0.6V100z"/>
<path d="M100.7,91H120v-9.7h-19.3V91z M104.6,83.9c0-0.3,0.3-0.6,0.6-0.6h10.4c0.3,0,0.6,0.3,0.6,0.6v0.7c0,0.3-0.3,0.6-0.6,0.6
	h-10.4c-0.3,0-0.6-0.3-0.6-0.6V83.9z"/>
<path d="M94.9,95.8v1.9v8.7v5.8v5.8h5.8v-5.8H120v5.8h5.8v-5.8v-5.8V75.5H94.9V95.8z M98.8,79.4H122v13.5H98.8V79.4z M98.8,106.4
	V94.8H122v11.6v1.9H120h-19.3h-1.9V106.4z"/>
<path d="M84.4,83.3H43.7c-4.6,0-6,4.1-6.5,6.7c-0.1,0.4-0.1,0.7-0.2,1h0.3h0.6h53.1C90.6,88.4,88.8,83.3,84.4,83.3z"/>
<rect x="46.6" y="27.2" width="36.7" height="15.5"/>
<path d="M91.1,93.1C90.9,93,90.8,93,90.6,93c-0.2,0-0.3-0.1-0.5-0.1H37.9c0,0-0.1,0-0.1,0c-0.3,0-0.6,0.1-0.9,0.2
	c-1.1,0.4-1.9,1.5-1.9,2.7v1.9c0,1.3,0.8,2.3,1.9,2.7c0.3,0.1,0.6,0.2,1,0.2h4.6h47.6c0.2,0,0.4,0,0.5-0.1c0.1,0,0.3-0.1,0.4-0.1
	c1-0.3,1.7-1.2,1.9-2.3c0-0.2,0-0.3,0-0.5v-1.9C93,94.6,92.2,93.5,91.1,93.1z"/>
</svg>
