<?xml version="1.0" encoding="utf-8"?>
<!-- Generator: Adobe Illustrator 17.1.0, SVG Export Plug-In . SVG Version: 6.00 Build 0)  -->
<!DOCTYPE svg PUBLIC "-//W3C//DTD SVG 1.1//EN" "http://www.w3.org/Graphics/SVG/1.1/DTD/svg11.dtd">
<svg version="1.1" id="Layer_1" xmlns="http://www.w3.org/2000/svg" xmlns:xlink="http://www.w3.org/1999/xlink" x="0px" y="0px"
	 viewBox="0 0 128 128" enable-background="new 0 0 128 128" xml:space="preserve">
<path d="M35.4,32.2c0.9,0.3,1.7,0.3,1.7,0.3c1.4,0,2.7-0.5,3.6-1.4c-2.9-0.4-5.7-0.8-8.4-1.3C32.9,30.9,34,31.8,35.4,32.2z"/>
<path d="M73.7,32.3c-6.9,0.4-13.4,0.4-19.5,0l1,2c2.8,0.1,5.6,0.2,8.5,0.2c2.9,0,6-0.1,9-0.2L73.7,32.3z"/>
<path d="M18.8,26.6c-9.9-2.7-15.7-5.3-15.8-5.4L2.1,23c0.2,0.1,5.7,2.6,15.3,5.3L18.8,26.6z"/>
<path d="M108.9,26.5l1.4,1.6c5.1-1.4,9.9-3,15.1-5l-0.7-1.8C119.3,23.5,114.2,25,108.9,26.5z"/>
<path d="M94.4,31.8c1.1-0.5,1.9-1.4,2.4-2.4c-2.9,0.6-5.8,1.1-8.6,1.5c0.7,0.8,1.8,1.3,3.1,1.5C92.3,32.4,93.4,32.2,94.4,31.8z"/>
<path d="M51.4,31l-1.1-0.1L50.2,32c0,0,0,0,0,0.1c-0.1,0.8-0.5,1.4-1,1.8c-0.5,0.4-1.1,0.7-1.8,0.7c-0.1,0-0.2,0-0.3,0
	c-0.8-0.1-1.4-0.4-1.9-1c0,0,0,0,0,0c-0.5-0.6-0.7-1.3-0.6-2c0,0,0-0.1,0-0.1l0.1-1.3l-1.1-0.1c-0.1,0.5-0.4,1-0.6,1.4
	c-0.4,0.7-1,1.3-1.6,1.7c-1.1,0.8-2.6,1.3-4.2,1.3c-0.3,0-0.7,0-1-0.1c-2.1-0.3-3.9-1.4-5-2.9c-0.5-0.7-0.8-1.4-1-2.1
	c-0.1-0.4-0.1-0.7-0.1-1.1l-1.3-0.2l-0.1,0.3c0,0.2-0.1,0.4-0.2,0.6c-0.4,0.8-1,1.3-1.8,1.6c-0.2,0.1-0.5,0.1-0.7,0.1
	c-0.2,0-0.4,0-0.6-0.1c-0.5-0.1-2.5-0.7-2.3-2.9c0-0.1,0-0.3,0-0.4l-2.2-0.3l-8.6,10.2l6.6,5.7l-3.8,29.9l30.5,3.9l3.8-29.9l7.8-3.9
	L51.4,31z"/>
<path d="M106.8,26.9l-1.9,0.3c0,0.1,0,0.2,0,0.4c0.1,0.6-0.1,2.6-2.2,3.1c-0.2,0-0.4,0.1-0.6,0.1c-0.4,0-0.7-0.1-1.1-0.2
	c-0.7-0.3-1.3-0.9-1.6-1.6c0-0.1-0.3-0.8-0.3-0.8l-0.2,0c0,0.3,0,0.6-0.1,0.9c-0.1,0.8-0.4,1.5-0.9,2.2c-1,1.6-2.9,2.8-5.1,3.1
	c-0.4,0.1-0.7,0.1-1.1,0.1c-1.6,0-3.1-0.5-4.3-1.4c-0.6-0.5-1.2-1.1-1.6-1.7c-0.2-0.4-0.4-0.8-0.5-1.2l-2,0.3c0,0,0.2,1.2,0.2,1.3
	c0.1,0.7-0.2,1.4-0.6,2c-0.4,0.6-1.1,1-1.9,1.1c-0.1,0-0.3,0-0.4,0l0,0c-0.7,0-1.4-0.3-1.9-0.7c-0.5-0.4-0.9-1-1-1.7l0-0.1l-0.1-1
	l-1.4,0.2l-5.6,12.1l7.9,3.8l4.2,29.9l30.4-4.3L109,42.7l6.5-5.8L106.8,26.9z"/>
<path d="M48.1,25c-0.6,0-1,0.4-1,0.9l-0.3,2.6l-0.1,1l-0.1,1l-0.1,1.3c0,0,0,0.1,0,0.1c0,0.2,0.1,0.4,0.2,0.6
	c0.2,0.2,0.4,0.3,0.6,0.4l0.1,0c0.5,0,0.8-0.3,0.9-0.7c0,0,0-0.1,0-0.1l0.1-1.2l0.1-1l0.1-1l0.3-2.6c0-0.3,0-0.5-0.2-0.7
	C48.5,25.1,48.3,25,48.1,25C48.1,25,48.1,25,48.1,25z"/>
<path d="M79.8,25c-0.6,0.1-0.9,0.6-0.8,1.1l0.3,2.6l0.1,1l0.1,1l0.2,1.3c0,0,0,0.1,0,0.1c0.1,0.2,0.2,0.4,0.3,0.5
	c0.2,0.2,0.5,0.2,0.7,0.2l0.1,0c0.4-0.1,0.7-0.5,0.7-0.9c0,0,0-0.1,0-0.1l-0.2-1.2l-0.1-1l-0.1-1l-0.3-2.6c0-0.3-0.2-0.5-0.4-0.6
	C80.3,25.1,80.1,24.9,79.8,25C79.8,25,79.8,25,79.8,25z"/>
<path d="M27.3,21.2c-0.6-0.1-1,0.3-1.1,0.7l-0.6,2.5l-0.2,0.9l-0.2,0.9L25,27.6c0,0,0,0.1,0,0.1c0,0.2,0,0.4,0.1,0.6
	c0.1,0.2,0.4,0.4,0.6,0.4l0.1,0c0.4,0,0.9-0.2,1-0.6c0,0,0-0.1,0-0.1l0.3-1.2l0.2-0.9l0.2-0.9l0.6-2.6c0.1-0.3,0-0.5-0.1-0.7
	C27.8,21.4,27.6,21.2,27.3,21.2C27.3,21.2,27.3,21.2,27.3,21.2z"/>
<path d="M102.6,25.6l-0.8-3.6c-0.1-0.4-0.5-0.8-0.9-0.8c-0.1,0-0.1,0-0.2,0c-0.3,0.1-0.5,0.2-0.6,0.4c-0.1,0.2-0.2,0.5-0.1,0.7
	l0.8,3.5l0.2,0.9l0.2,0.9l0.1,0.3c0,0.1,0.1,0.3,0.2,0.4c0.2,0.3,0.6,0.4,0.9,0.3c0.3-0.1,0.5-0.2,0.6-0.4c0.1-0.1,0.1-0.2,0.1-0.3
	c0-0.1,0-0.3,0-0.4l0-0.1l-0.2-0.9L102.6,25.6z"/>
</svg>
